<svg width="512" height="512" viewBox="0 0 512 512" fill="none" xmlns="http://www.w3.org/2000/svg">
<rect width="512" height="512" rx="256" fill="#E25931"/>
<path d="M426.066 231.531C419.598 217.749 408.356 198.905 395.707 187.655C378.841 173.032 357.759 164.031 339.204 163.469H337.518C314.467 163.469 309.972 173.032 309.689 178.657C308.003 195.532 327.962 197.502 334.709 198.343C357.476 200.595 376.311 216.346 383.898 239.125C388.677 254.031 389.243 270.065 385.305 284.125C383.62 290.033 379.403 299.593 372.373 306.625C375.187 310.281 379.403 316.468 382.775 323.221C384.181 326.031 383.058 329.408 380.244 330.811C379.403 331.094 378.558 331.378 377.717 331.378C375.749 331.378 373.78 330.249 372.656 328.28C369.285 321.531 364.785 315.344 362.538 312.533C361.693 311.688 360.848 310.564 360.848 310.564C344.544 291.719 327.117 276.814 326.555 276.252C308.844 260.218 293.385 241.94 281.015 221.971C274.551 211.562 269.773 200.874 265.556 188.5C263.309 181.751 261.34 174.156 259.371 164.876C253.186 135.906 247.284 125.218 245.877 122.686C226.764 82.1871 192.471 76 173.915 76C167.735 76 163.235 76.8453 161.828 76.8453C141.308 78.5315 125.85 99.9073 122.757 104.125C114.603 111.157 102.237 112.844 95.4898 113.406C92.1141 113.689 85.6501 115.096 81.9957 119.314C77.5005 124.656 75.5317 130.843 76.0936 137.596C78.0624 153.343 95.7686 166.283 96.6136 166.845L96.8967 167.124C102.516 170.501 112.355 173.311 125.566 175.843C131.752 176.971 139.906 179.781 142.994 182.875C165.204 203.968 143.556 242.502 143.277 242.502C133.437 257.686 136.251 272.03 140.467 281.315C142.432 285.811 146.086 290.033 150.024 294.251C151.993 296.22 153.679 298.19 154.802 299.876C157.612 303.815 159.864 308.594 161.266 313.657C165.766 330.532 166.045 351.063 162.111 376.656C161.549 381.157 157.333 387.906 153.395 391.562L152.555 392.407C145.808 398.311 135.685 407.03 137.375 418.846C139.061 430.096 153.395 436 163.235 436C196.404 436 207.93 407.03 208.213 405.906C215.239 389.876 209.615 358.657 209.053 355.002C209.053 354.719 209.053 354.44 208.775 354.44C200.904 330.532 212.708 300.438 212.991 300.155V299.876C214.96 293.406 213.27 288.905 211.584 286.094C206.806 279.062 196.404 277.938 194.719 277.655L177.853 275.69C175.039 275.406 174.477 274.282 174.199 273.999C173.075 272.03 173.354 268.374 173.915 265.564C179.822 262.47 182.91 257.686 185.441 254.031C186.003 253.19 186.565 252.344 187.127 251.499C188.816 249.251 191.626 246.719 193.312 245.874L208.213 238.28C209.898 237.439 211.022 235.753 211.305 233.783L212.146 226.751C244.475 241.094 246.16 280.186 245.315 297.344C244.191 315.906 253.469 335.595 269.211 347.407C281.015 355.843 292.824 370.469 292.824 384.53V395.78H277.361C277.082 395.78 276.799 395.78 276.52 395.78C252.624 398.878 245.877 419.687 245.598 430.375C245.598 433.469 248.129 436 251.222 436H362.816C363.661 436 364.785 435.721 365.63 435.438C385.867 424.471 395.424 405.344 393.459 380.033C393.176 375.532 395.707 369.624 399.078 366.814C434.216 335.595 446.587 275.969 426.066 231.531ZM90.1496 135.065C87.057 135.065 84.5263 132.533 84.5263 129.44C84.5263 126.346 87.057 123.815 90.1496 123.815C93.2422 123.815 95.7686 126.346 95.7686 129.44C95.7686 132.533 93.2422 135.065 90.1496 135.065ZM149.179 115.375C146.086 115.375 143.556 112.844 143.556 109.75C143.556 106.656 146.086 104.125 149.179 104.125C152.272 104.125 154.802 106.656 154.802 109.75C154.802 112.844 152.272 115.375 149.179 115.375ZM211.022 165.721C207.651 170.78 201.183 174.44 194.157 175.564C187.972 176.405 182.348 175.281 178.132 171.908C166.328 162.344 169.982 143.5 173.075 133.095C180.384 109.188 175.039 95.1276 169.42 87.25C170.823 87.25 179.256 87.25 182.631 87.5332C182.91 87.5332 183.193 87.8121 183.476 87.8121C192.471 91.7509 198.652 106.094 203.151 116.782C204.275 119.314 205.399 121.845 206.244 123.815C213.27 138.999 218.61 154.188 211.022 165.721Z" fill="white"/>
</svg>
